<?xml version="1.0" standalone="no"?><!DOCTYPE svg PUBLIC "-//W3C//DTD SVG 1.1//EN" "http://www.w3.org/Graphics/SVG/1.1/DTD/svg11.dtd"><svg class="icon" width="200px" height="199.22px" viewBox="0 0 1028 1024" version="1.1" xmlns="http://www.w3.org/2000/svg"><path d="M126.100612 956.810028l258.116782-256.430705 103.573314-0.889988 212.996866-214.282857c29.259359-62.344031-221.415005-186.901454-259.953912-163.87609l-205.987195 339.023993-108.745855 296.455647z" fill="#F0F0FF" /><path d="M710.405971 440.796919C669.286916 376.072784 510.967125 300.150319 454.505992 300.150319c-9.455096 0-17.011825 1.767727-23.098849 5.401163-2.5679 1.535024-4.723466 3.67426-6.278903 6.233995l-205.991277 339.01991c-0.620542 1.020628-1.134938 2.098411-1.547271 3.212936l-108.741774 296.45973a18.371301 18.371301 0 0 0 30.194255 19.359268l252.809517-251.160182 96.09007-0.82875a18.375384 18.375384 0 0 0 12.868076-5.417493l213.000949-214.282857c1.481952-1.498282 2.702623-3.237432 3.596693-5.148047 5.078644-10.79416 7.98131-28.622487-7.001507-52.203073z m-25.691244 34.513551l-204.635883 205.876967-51.125291 0.436828 41.882485-41.882484a18.363136 18.363136 0 0 0 0-25.97702 18.363136 18.363136 0 0 0-25.97702 0l-73.583185 73.57502c-0.004083 0-0.008165 0-0.012248 0.008165l-199.430681 198.12836 79.641632-217.124285 201.373957-331.426439c0.485819-0.024495 1.04104-0.040825 1.661582-0.040825 45.932336 0 191.15543 70.529467 224.881057 123.606197 2.355609 3.715085 5.842074 10.108298 5.323595 14.819516z" fill="#6E6E96" /><path d="M621.068374 31.590473l-200.839147 297.651822s-41.168045 64.993581 98.73962 151.534658c123.275514 76.25723 176.082798 23.690814 176.082798 23.690813l211.171984-289.462304" fill="#94D9FF" /><path d="M566.289236 509.636226c83.479193 46.552877 123.75725-9.193816 123.75725-9.193816l211.167902-289.462304-87.78216-55.591558-247.142992 354.247678z" fill="#6E6E96" /><path d="M638.300655 540.406114c-31.570061 0.004083-74.28946-10.161371-128.995113-44.001307-63.887221-39.51871-101.144219-80.703085-110.738121-122.401857-7.360768-32.002807 4.739796-52.370456 6.14418-54.587259l0.289858-0.444994 200.835065-297.651823 30.459618 20.551363-200.459474 297.088436c-9.700047 18.024288-2.68221 67.145065 92.791401 126.202674 100.384872 62.090916 145.757904 32.374315 152.804318 26.813935l209.947231-287.788475 29.68394 21.657723-212.029311 290.629902-1.024711 1.024711c-1.522777 1.514612-23.890857 22.906971-69.708881 22.906971z" fill="#6E6E96" /><path d="M389.426678 441.307233s80.788818 94.23661 145.006722 113.559137l-105.483929 126.757895 51.12529-0.436828 140.92421-141.773373-199.96549-150.113944-31.606803 52.007113z" fill="#6E6E96" /><path d="M171.832904 885.480389l265.371405-389.418513-47.777631-54.754643-137.952142 227.052953z" fill="#FFFFFF" /></svg>