<?xml version="1.0" standalone="no"?><!DOCTYPE svg PUBLIC "-//W3C//DTD SVG 1.1//EN" "http://www.w3.org/Graphics/SVG/1.1/DTD/svg11.dtd"><svg class="icon" width="200px" height="200.00px" viewBox="0 0 1024 1024" version="1.1" xmlns="http://www.w3.org/2000/svg"><path d="M669.64 907.09a1962.1 1962.1 0 0 1-312.53 0 262.4 262.4 0 0 1-240.67-240.66 1962.1 1962.1 0 0 1 0-312.53 262.4 262.4 0 0 1 240.67-240.67 1962.1 1962.1 0 0 1 312.53 0A262.4 262.4 0 0 1 910.3 353.9a1962.1 1962.1 0 0 1 0 312.53 262.4 262.4 0 0 1-240.66 240.66z" fill="#D7FFF4" /><path d="M243.69 368.05v298.53a49.88 49.88 0 0 0 49.88 49.88H738a50 50 0 0 0 50-50V450.8a54.05 54.05 0 0 0-54-54.05H606.88a94.11 94.11 0 0 1-58.81-20.64l-49-39.22a91.19 91.19 0 0 0-57-20H294.8a51.1 51.1 0 0 0-51.11 51.16z" fill="#0BD8A2" /><path d="M489.84 647.57H334.7a26.9 26.9 0 0 1 0-53.8h155.14a26.9 26.9 0 0 1 0 53.8z" fill="#D7FFF4" /></svg>