<?xml version="1.0" standalone="no"?><!DOCTYPE svg PUBLIC "-//W3C//DTD SVG 1.1//EN" "http://www.w3.org/Graphics/SVG/1.1/DTD/svg11.dtd"><svg class="icon" width="200px" height="200.00px" viewBox="0 0 1024 1024" version="1.1" xmlns="http://www.w3.org/2000/svg"><path d="M676.6 481.88L615.67 443a21.74 21.74 0 0 0-23.36 0l-60.93 38.86A21.72 21.72 0 0 1 498 463.57V171.72A21.72 21.72 0 0 1 519.7 150h168.58A21.71 21.71 0 0 1 710 171.72v291.85a21.72 21.72 0 0 1-33.4 18.31z" fill="#FF743E" /><path d="M752.85 244.54a3.16 3.16 0 0 1 3.15 3.15v548.76a3.16 3.16 0 0 1-3.15 3.15h-478.7a3.16 3.16 0 0 1-3.15-3.15V247.69a3.16 3.16 0 0 1 3.15-3.15h478.7m0-47h-478.7A50.15 50.15 0 0 0 224 247.69v548.76a50.15 50.15 0 0 0 50.15 50.15h478.7A50.15 50.15 0 0 0 803 796.45V247.69a50.15 50.15 0 0 0-50.15-50.15z"  /></svg>