<?xml version="1.0" standalone="no"?><!DOCTYPE svg PUBLIC "-//W3C//DTD SVG 1.1//EN" "http://www.w3.org/Graphics/SVG/1.1/DTD/svg11.dtd"><svg class="icon" width="200px" height="200.00px" viewBox="0 0 1024 1024" version="1.1" xmlns="http://www.w3.org/2000/svg"><path d="M668.64 908.09a1962.1 1962.1 0 0 1-312.53 0 262.4 262.4 0 0 1-240.67-240.66 1962.1 1962.1 0 0 1 0-312.53 262.4 262.4 0 0 1 240.67-240.67 1962.1 1962.1 0 0 1 312.53 0A262.4 262.4 0 0 1 909.3 354.9a1962.1 1962.1 0 0 1 0 312.53 262.4 262.4 0 0 1-240.66 240.66z" fill="#D3EEFF" /><path d="M512.31 225c-161.59 0-293.26 131.68-293.26 293.27 0 60.11 25.51 103.52 75.66 129 30.2 15.26 62.46 17 91.2 18.19 34.9 1.76 56.9 3.51 67.45 21.41 7.63 12.9 2.06 24-7.33 41.05-8.79 15.54-20.82 37.25-4.1 57.48 19.06 23.17 47.51 26.1 70.38 26.1 161.59 0 293.27-131.67 293.27-293.26S673.9 225 512.31 225z" fill="#39B2FF" /><path d="M366.48 549.58a69.1 69.1 0 1 1 69.1-69.09 69.09 69.09 0 0 1-69.1 69.09z m112.06-153.22a48.69 48.69 0 1 1 48.68-48.69 48.69 48.69 0 0 1-48.68 48.69z m146.06-22.91a32.94 32.94 0 1 1 32.93-32.94 32.94 32.94 0 0 1-32.93 32.94z" fill="#D3EEFF" /></svg>