<?xml version="1.0" standalone="no"?><!DOCTYPE svg PUBLIC "-//W3C//DTD SVG 1.1//EN" "http://www.w3.org/Graphics/SVG/1.1/DTD/svg11.dtd"><svg class="icon" width="200px" height="200.00px" viewBox="0 0 1024 1024" version="1.1" xmlns="http://www.w3.org/2000/svg"><path d="M825.6 1017.6H209.066667c-46.933333 0-85.333333-38.4-85.333334-85.333333V140.8c0-46.933333 38.4-85.333333 85.333334-85.333333h616.533333c46.933333 0 85.333333 38.4 85.333333 85.333333v791.466667c0 46.933333-38.4 85.333333-85.333333 85.333333z" fill="#FFF0B3" /><path d="M625.066667 413.866667c-42.666667 0-76.8 46.933333-76.8 46.933333s-32-46.933333-76.8-46.933333c-42.666667 0-78.933333 36.266667-81.066667 78.933333-2.133333 25.6 6.4 42.666667 17.066667 59.733333 34.133333 51.2 108.8 128 140.8 128s106.666667-76.8 140.8-128c10.666667-17.066667 19.2-36.266667 17.066666-59.733333-2.133333-42.666667-36.266667-78.933333-81.066666-78.933333" fill="#FFA9B1" /><path d="M590.933333 652.8c-40.533333 0-119.466667-87.466667-149.333333-134.4-14.933333-23.466667-21.333333-42.666667-19.2-66.133333 2.133333-51.2 42.666667-89.6 91.733333-89.6 36.266667 0 64 25.6 76.8 40.533333 12.8-14.933333 42.666667-40.533333 76.8-40.533333 49.066667 0 89.6 38.4 91.733334 89.6 2.133333 29.866667-8.533333 51.2-19.2 66.133333-32 46.933333-108.8 134.4-149.333334 134.4zM514.133333 384c-36.266667 0-68.266667 32-70.4 68.266667 0 19.2 4.266667 36.266667 17.066667 53.333333 36.266667 53.333333 106.666667 123.733333 132.266667 123.733333 25.6 0 96-70.4 130.133333-123.733333 12.8-19.2 17.066667-34.133333 17.066667-53.333333-4.266667-38.4-36.266667-68.266667-72.533334-68.266667s-68.266667 42.666667-68.266666 42.666667c-2.133333 2.133333-4.266667 4.266667-8.533334 4.266666s-6.4-2.133333-8.533333-4.266666c-2.133333 0-29.866667-42.666667-68.266667-42.666667z" fill="#5C545D" /><path d="M224 384H61.866667c-17.066667 0-32-14.933333-32-32v-38.4c0-17.066667 14.933333-32 32-32h162.133333c17.066667 0 32 14.933333 32 32v38.4c0 17.066667-14.933333 32-32 32z" fill="#FFA9B1" /><path d="M183.466667 659.2c-6.4 0-10.666667-4.266667-10.666667-10.666667V341.333333c0-6.4 4.266667-10.666667 10.666667-10.666666s10.666667 4.266667 10.666666 10.666666v307.2c0 6.4-4.266667 10.666667-10.666666 10.666667z" fill="#5C545D" /><path d="M224 691.2H61.866667c-17.066667 0-32 14.933333-32 32v38.4c0 17.066667 14.933333 32 32 32h162.133333c17.066667 0 32-14.933333 32-32v-38.4c0-19.2-14.933333-32-32-32z" fill="#FFA9B1" /><path d="M889.6 987.733333H266.666667c-51.2 0-91.733333-40.533333-91.733334-91.733333v-142.933333c0-6.4 4.266667-10.666667 10.666667-10.666667s10.666667 4.266667 10.666667 10.666667V896c0 38.4 32 70.4 70.4 70.4h625.066666c38.4 0 70.4-32 70.4-70.4V96c0-38.4-32-70.4-70.4-70.4H266.666667c-38.4 0-70.4 32-70.4 70.4v142.933333c0 6.4-4.266667 10.666667-10.666667 10.666667s-10.666667-4.266667-10.666667-10.666667V96c0-51.2 40.533333-91.733333 91.733334-91.733333h625.066666c51.2 0 91.733333 40.533333 91.733334 91.733333v797.866667c0 51.2-42.666667 93.866667-93.866667 93.866666z" fill="#5C545D" /><path d="M264.533333 352H104.533333c-23.466667 0-42.666667-19.2-42.666666-42.666667v-38.4c0-23.466667 19.2-42.666667 42.666666-42.666666h162.133334c23.466667 0 42.666667 19.2 42.666666 42.666666v38.4c-2.133333 23.466667-21.333333 42.666667-44.8 42.666667z m-160-100.266667c-12.8 0-21.333333 8.533333-21.333333 21.333334v38.4c0 12.8 8.533333 21.333333 21.333333 21.333333h162.133334c12.8 0 21.333333-8.533333 21.333333-21.333333v-38.4c0-12.8-8.533333-21.333333-21.333333-21.333334H104.533333zM264.533333 761.6H104.533333c-23.466667 0-42.666667-19.2-42.666666-42.666667v-38.4c0-23.466667 19.2-42.666667 42.666666-42.666666h162.133334c23.466667 0 42.666667 19.2 42.666666 42.666666v38.4c-2.133333 23.466667-21.333333 42.666667-44.8 42.666667z m-160-102.4c-12.8 0-21.333333 8.533333-21.333333 21.333333v38.4c0 12.8 8.533333 21.333333 21.333333 21.333334h162.133334c12.8 0 21.333333-8.533333 21.333333-21.333334v-38.4c0-12.8-8.533333-21.333333-21.333333-21.333333H104.533333z" fill="#5C545D" /></svg>