<?xml version="1.0" standalone="no"?><!DOCTYPE svg PUBLIC "-//W3C//DTD SVG 1.1//EN" "http://www.w3.org/Graphics/SVG/1.1/DTD/svg11.dtd"><svg class="icon" width="200px" height="200.00px" viewBox="0 0 1024 1024" version="1.1" xmlns="http://www.w3.org/2000/svg"><path d="M668.64 908.09a1962.1 1962.1 0 0 1-312.53 0 262.4 262.4 0 0 1-240.67-240.66 1962.1 1962.1 0 0 1 0-312.53 262.4 262.4 0 0 1 240.67-240.67 1962.1 1962.1 0 0 1 312.53 0A262.4 262.4 0 0 1 909.3 354.9a1962.1 1962.1 0 0 1 0 312.53 262.4 262.4 0 0 1-240.66 240.66z" fill="#FFE4CF" /><path d="M513 509.67m-274 0a274 274 0 1 0 548 0 274 274 0 1 0-548 0Z" fill="#FF6E1F" /><path d="M508.23 697.36h231.12a42.89 42.89 0 0 1 42.89 42.89 42.89 42.89 0 0 1-42.89 42.89H508.23v-85.78z" fill="#FF6E1F" /><path d="M513 391.68m-53.95 0a53.95 53.95 0 1 0 107.9 0 53.95 53.95 0 1 0-107.9 0Z" fill="#FFE4CF" /><path d="M513 627.66m-53.95 0a53.95 53.95 0 1 0 107.9 0 53.95 53.95 0 1 0-107.9 0Z" fill="#FFE4CF" /><path d="M630.99 509.67m-53.95 0a53.95 53.95 0 1 0 107.9 0 53.95 53.95 0 1 0-107.9 0Z" fill="#FFE4CF" /><path d="M395.01 509.67m-53.95 0a53.95 53.95 0 1 0 107.9 0 53.95 53.95 0 1 0-107.9 0Z" fill="#FFE4CF" /></svg>