<?xml version="1.0" standalone="no"?><!DOCTYPE svg PUBLIC "-//W3C//DTD SVG 1.1//EN" "http://www.w3.org/Graphics/SVG/1.1/DTD/svg11.dtd"><svg class="icon" width="200px" height="200.00px" viewBox="0 0 1024 1024" version="1.1" xmlns="http://www.w3.org/2000/svg"><path d="M509.5 508.78m-146.5 0a146.5 146.5 0 1 0 293 0 146.5 146.5 0 1 0-293 0Z" fill="#FF743E" /><path d="M509.5 216.44a25.13 25.13 0 0 1 12.55 3.36L753.5 353.43a25.16 25.16 0 0 1 12.5 21.73v267.25a25.17 25.17 0 0 1-12.54 21.73L522.05 797.77a25.12 25.12 0 0 1-25.1 0L265.5 664.14a25.17 25.17 0 0 1-12.5-21.73V375.16a25.16 25.16 0 0 1 12.54-21.73L497 219.8a25.13 25.13 0 0 1 12.55-3.36m0-47a72.06 72.06 0 0 0-36.05 9.66L242 312.72a72.11 72.11 0 0 0-36 62.44v267.25a72.11 72.11 0 0 0 36 62.44l231.45 133.62a72.1 72.1 0 0 0 72.1 0L777 704.85a72.11 72.11 0 0 0 36-62.44V375.16a72.11 72.11 0 0 0-36-62.44L545.55 179.1a72.06 72.06 0 0 0-36-9.66z"  /></svg>