<?xml version="1.0" standalone="no"?><!DOCTYPE svg PUBLIC "-//W3C//DTD SVG 1.1//EN" "http://www.w3.org/Graphics/SVG/1.1/DTD/svg11.dtd"><svg class="icon" width="200px" height="200.00px" viewBox="0 0 1024 1024" version="1.1" xmlns="http://www.w3.org/2000/svg"><path d="M411.36 538.79m29.14 0l148.31 0q29.14 0 29.14 29.14l0 214.24q0 29.14-29.14 29.14l-148.31 0q-29.14 0-29.14-29.14l0-214.24q0-29.14 29.14-29.14Z" fill="#FF743E" /><path d="M514.49 229a76.38 76.38 0 0 1 41.25 12.07l233 149.11A76.21 76.21 0 0 1 824 454.66v306.15a32.47 32.47 0 0 1-32.43 32.43H237.4a32.47 32.47 0 0 1-32.4-32.43V454.66a76.2 76.2 0 0 1 35.28-64.46l233-149.11A76.33 76.33 0 0 1 514.49 229m0-47a123.41 123.41 0 0 0-66.59 19.5l-233 149.12a123.51 123.51 0 0 0-56.94 104v306.19a79.43 79.43 0 0 0 79.43 79.43h554.18A79.43 79.43 0 0 0 871 760.81V454.66a123.51 123.51 0 0 0-56.94-104l-233-149.12A123.38 123.38 0 0 0 514.49 182z"  /></svg>