<?xml version="1.0" standalone="no"?><!DOCTYPE svg PUBLIC "-//W3C//DTD SVG 1.1//EN" "http://www.w3.org/Graphics/SVG/1.1/DTD/svg11.dtd"><svg class="icon" width="200px" height="143.42px" viewBox="0 0 1428 1024" version="1.1" xmlns="http://www.w3.org/2000/svg"><path d="M762.311111 120.228171A165.828871 165.828871 0 0 1 1037.43832 305.497813c-50.438495 74.896238-250.848644 164.843395-326.551181 113.688189s0.985477-224.151181 51.423972-298.957831z" fill="#FFFFFF" /><path d="M512.627122 202.739458C497.217848 113.867367 542.101837 31.804024 612.87699 19.44077s140.833596 49.811374 156.24287 138.683464-42.106737 288.207174-112.971479 300.48084S528.573928 291.611549 512.627122 202.739458z" fill="#FFFFFF" /><path d="M928.498338 997.12336a1212.853193 1212.853193 0 0 1-188.136483-14.96133c-159.91601-24.905687-306.035346-78.300612-411.391776-150.330009-110.731759-76.060892-164.664217-164.932983-151.315486-250.221522 20.874191-134.383202 209.99615-225.047069 470.520385-225.047069a1226.739458 1226.739458 0 0 1 188.136483 14.871741 1260.066492 1260.066492 0 0 1 128.291164 26.87664l7.167104 1.881365a1085.009974 1085.009974 0 0 1 115.211198 38.07524c25.44322 10.033946 49.273841 20.695013 70.954331 31.44567 17.91776 8.95888 35.835521 18.634471 53.305337 28.847594a550.971129 550.971129 0 0 1 113.150656 86.72196c58.770254 60.203675 84.751006 124.707612 75.075416 186.613473-7.077515 45.869466-32.789501 86.72196-76.508837 121.482415a400.372353 400.372353 0 0 1-113.509011 60.472441c-15.588451 5.644094-31.983202 10.750656-50.169729 15.67804a778.07874 778.07874 0 0 1-87.707436 17.91776c-25.622397 3.673141-52.946982 6.360805-81.346632 8.062992-9.675591 0.537533-18.365704 0.985477-26.876641 1.254243-11.646544 0.179178-22.665967 0.358355-34.850043 0.358356z" fill="#FFD341" /><path d="M648.174978 383.44007a1187.589151 1187.589151 0 0 1 183.657043 14.602975 1227.366579 1227.366579 0 0 1 125.424322 26.339107l6.808749 1.791776a1063.239895 1063.239895 0 0 1 112.613123 37.179353c24.099388 9.586002 47.034121 19.709536 68.8042 30.549781q26.87664 13.259143 51.603149 27.862117a524.811199 524.811199 0 0 1 107.506562 82.421698c50.976028 52.140682 76.419248 108.671216 67.818723 163.67874-6.181627 39.956605-29.743482 75.165004-66.743657 104.550131a372.689414 372.689414 0 0 1-105.177253 56.172179c-15.230096 5.554506-31.176903 10.48189-47.930009 14.961329a736.24077 736.24077 0 0 1-84.661417 17.111461c-25.353631 3.673141-51.782327 6.271216-79.106912 7.883815-8.95888 0-17.91776 0.895888-26.87664 1.164654-11.109011 0-22.3972 0.537533-33.68539 0.537533a1198.787752 1198.787752 0 0 1-183.657043-14.602974c-322.519685-50.259318-564.409449-215.819423-540.758005-369.822573 19.619948-123.811724 204.889589-202.381102 444.360455-202.381102m0-53.753281c-278.621172 0-473.745582 97.293438-497.128259 247.892214-14.96133 96.039195 43.002625 194.228521 163.141208 276.381452 108.671216 74.269116 258.64287 129.27664 422.500787 154.809449a1255.318285 1255.318285 0 0 0 191.899213 15.230096c11.825722 0 23.741032 0 35.387576-0.627122 8.95888 0 17.91776-0.71671 27.414173-1.164654 29.205949-1.791776 57.336833-4.569029 83.675941-8.421347a775.301487 775.301487 0 0 0 90.843044-17.917761c18.992826-5.016973 35.835521-10.392301 52.499038-16.39475a422.769554 422.769554 0 0 0 120.407349-64.593526c48.467542-38.433596 78.390201-86.363605 86.453193-138.414698 11.019423-70.506387-17.469816-143.342082-82.511286-209.458618a573.368329 573.368329 0 0 0-118.615573-91.022222c-17.91776-10.571479-36.373053-20.605424-55.365879-29.92266-22.128434-11.019423-46.586177-21.949256-72.566929-32.251968a1111.797025 1111.797025 0 0 0-118.436396-39.060718c-2.23972-0.627122-4.927384-1.433421-7.615048-2.060542a1277.984252 1277.984252 0 0 0-130.441294-26.876641 1248.419948 1248.419948 0 0 0-191.899213-15.230096z"  /><path d="M497.217848 985.924759c-258.553281 0-389.711286-87.43867-389.711286-259.807524 0-197.632896 174.787752-358.355206 389.711286-358.355205S886.929134 528.573928 886.929134 726.117235c0 172.368854-131.158005 259.807524-389.711286 259.807524z" fill="#FFD341" /><path d="M497.217848 394.63867c200.410149 0 362.834646 148.359055 362.834645 331.478565s-162.424497 232.930884-362.834645 232.930884-362.834646-49.900962-362.834646-232.930884 162.424497-331.478565 362.834646-331.478565m0-53.753281c-229.705687 0-416.587927 172.816798-416.587927 385.231846C80.629921 830.756955 127.126509 911.11811 215.013123 958.600175c67.729134 36.552231 160.005599 54.290814 282.025547 54.290814s214.296413-17.91776 282.025547-54.290814c88.065792-47.392476 134.383202-127.753631 134.383202-232.393351 0-212.415048-186.88224-385.231846-416.587926-385.231846z"  /><path d="M138.862642 605.172353m-120.944882 0a120.944882 120.944882 0 1 0 241.889764 0 120.944882 120.944882 0 1 0-241.889764 0Z" fill="#FFFFFF" /><path d="M568.888889 605.172353m-120.944882 0a120.944882 120.944882 0 1 0 241.889764 0 120.944882 120.944882 0 1 0-241.889764 0Z" fill="#FFFFFF" /><path d="M107.506562 600.692913m-35.835521 0a35.835521 35.835521 0 1 0 71.671041 0 35.835521 35.835521 0 1 0-71.671041 0Z"  /><path d="M528.573928 600.692913m-35.83552 0a35.835521 35.835521 0 1 0 71.671041 0 35.835521 35.835521 0 1 0-71.671041 0Z"  /><path d="M925.273141 396.520035c79.465267 160.72231 137.51881 471.057918-64.145582 569.605599-15.588451 7.525459-1.970954 30.728959 13.527909 23.2035 216.536133-105.804374 159.557655-432.893088 73.821172-606.426597-7.615048-15.498863-30.818548-1.881365-23.203499 13.617498zM1135.35888 464.697113c27.951706 91.91811 57.426422 188.584427 39.419073 285.340332-14.334208 77.494313-51.60315 176.310761-125.424322 215.013124-15.319685 8.062992-1.702187 31.266492 13.527909 23.203499 76.329659-40.404549 115.300787-135.547857 134.383202-215.640245 25.084864-106.700262-5.106562-213.310936-35.835521-315.173403-5.016973-16.484339-30.997725-9.496413-25.980752 7.077515z"  /></svg>