<?xml version="1.0" standalone="no"?><!DOCTYPE svg PUBLIC "-//W3C//DTD SVG 1.1//EN" "http://www.w3.org/Graphics/SVG/1.1/DTD/svg11.dtd"><svg class="icon" width="200px" height="200.00px" viewBox="0 0 1024 1024" version="1.1" xmlns="http://www.w3.org/2000/svg"><path d="M43.885714 248.685714h936.228572v702.171429H43.885714z" fill="#FBDC02" /><path d="M43.885714 73.142857h936.228572v131.657143H43.885714z" fill="#44DDE0" /><path d="M131.657143 175.542857c-16.1792 0-29.257143-13.077943-29.257143-29.257143 0-16.1792 13.077943-29.257143 29.257143-29.257143 16.1792 0 29.257143 13.077943 29.257143 29.257143 0 16.1792-13.077943 29.257143-29.257143 29.257143z" fill="#F5222D" /><path d="M248.685714 175.542857c-16.1792 0-29.257143-13.077943-29.257143-29.257143 0-16.1792 13.077943-29.257143 29.257143-29.257143 16.1792 0 29.257143 13.077943 29.257143 29.257143 0 16.1792-13.077943 29.257143-29.257143 29.257143z" fill="#2E54EB" /><path d="M292.571429 555.885714h438.857142v14.628572H292.571429z" fill="#000000" /><path d="M351.085714 672.914286h336.457143v14.628571H351.085714z" fill="#2E65FB" /></svg>