<?xml version="1.0" standalone="no"?><!DOCTYPE svg PUBLIC "-//W3C//DTD SVG 1.1//EN" "http://www.w3.org/Graphics/SVG/1.1/DTD/svg11.dtd"><svg class="icon" width="200px" height="200.00px" viewBox="0 0 1024 1024" version="1.1" xmlns="http://www.w3.org/2000/svg"><path d="M670.64 909.09a1962.1 1962.1 0 0 1-312.53 0 262.4 262.4 0 0 1-240.67-240.66 1962.1 1962.1 0 0 1 0-312.53 262.4 262.4 0 0 1 240.67-240.67 1962.1 1962.1 0 0 1 312.53 0A262.4 262.4 0 0 1 911.3 355.9a1962.1 1962.1 0 0 1 0 312.53 262.4 262.4 0 0 1-240.66 240.66z" fill="#FFDEDE" /><path d="M750.92 276.67c-48.48 2.26-126.34 10.87-189.37 41.13a113.45 113.45 0 0 1-98.29 0c-63-30.26-140.88-38.87-189.36-41.13a44 44 0 0 0-46.09 44v342.57a46.82 46.82 0 0 0 46.39 46.82c135.49 1.12 193.27 53.4 238.21 53.4 46.81 0 102.71-52.28 238.2-53.4A46.82 46.82 0 0 0 797 663.24V320.63a44 44 0 0 0-46.08-43.96z" fill="#FF3B3B" /><path d="M663 485.71a56.6 56.6 0 0 1-56.6-56.6V368a20 20 0 0 1 12.13-18.4A237.3 237.3 0 0 1 663 335.65a249.36 249.36 0 0 1 41.43-5.19A14.6 14.6 0 0 1 719.57 345v84.07A56.6 56.6 0 0 1 663 485.71z" fill="#FFDEDE" /></svg>