<?xml version="1.0" standalone="no"?><!DOCTYPE svg PUBLIC "-//W3C//DTD SVG 1.1//EN" "http://www.w3.org/Graphics/SVG/1.1/DTD/svg11.dtd"><svg class="icon" width="200px" height="200.00px" viewBox="0 0 1024 1024" version="1.1" xmlns="http://www.w3.org/2000/svg"><path d="M233.90856933 164.38571167h556.18286133a69.52285766 69.52285766 0 0 1 69.52285767 69.52285766v104.2842865H164.38571167V233.90856933A69.52285766 69.52285766 0 0 1 233.90856933 164.38571167z" fill="#6E371B" /><path d="M164.38571167 685.80714417h695.22857666v104.2842865a69.52285766 69.52285766 0 0 1-69.52285766 69.52285766H233.90856933A69.52285766 69.52285766 0 0 1 164.38571167 790.09143067V685.80714417z" fill="#66DDCD" /><path d="M164.38571167 338.19285583h695.22857666v173.80714417H164.38571167z" fill="#F04F25" /><path d="M164.38571167 512h695.22857666v173.80714417H164.38571167z" fill="#F0A03B" /><path d="M237.38471221 251.28928375m-31.28528594 1e-8a31.28528595 31.28528595 0 1 0 62.5705719 0 31.28528595 31.28528595 0 1 0-62.5705719 0Z" fill="#FFFFFF" /><path d="M237.38471221 425.09642791m-31.28528594 1e-8a31.28528595 31.28528595 0 1 0 62.5705719 0 31.28528595 31.28528595 0 1 0-62.5705719 0Z" fill="#FFFFFF" /><path d="M237.38471221 598.90357209m-31.28528594-1e-8a31.28528595 31.28528595 0 1 0 62.5705719 0 31.28528595 31.28528595 0 1 0-62.5705719 0Z" fill="#FFFFFF" /><path d="M237.38471221 772.71071625m-31.28528594-1e-8a31.28528595 31.28528595 0 1 0 62.5705719 0 31.28528595 31.28528595 0 1 0-62.5705719 0Z" fill="#FFFFFF" /><path d="M296.47914123 247.81314087h500.5645752v6.95228577H296.47914123z" fill="#FFFFFF" fill-opacity=".7" /><path d="M296.47914123 421.62028503h500.5645752v6.95228577H296.47914123z" fill="#FFFFFF" fill-opacity=".7" /><path d="M296.47914123 595.4274292h500.5645752v6.95228577H296.47914123z" fill="#FFFFFF" fill-opacity=".7" /><path d="M296.47914123 769.23457336h500.5645752v6.95228577H296.47914123z" fill="#FFFFFF" fill-opacity=".7" /></svg>