<?xml version="1.0" standalone="no"?><!DOCTYPE svg PUBLIC "-//W3C//DTD SVG 1.1//EN" "http://www.w3.org/Graphics/SVG/1.1/DTD/svg11.dtd"><svg class="icon" width="200px" height="200.00px" viewBox="0 0 1024 1024" version="1.1" xmlns="http://www.w3.org/2000/svg"><path d="M670.64 910.09a1962.1 1962.1 0 0 1-312.53 0 262.4 262.4 0 0 1-240.67-240.66 1962.1 1962.1 0 0 1 0-312.53 262.4 262.4 0 0 1 240.67-240.67 1962.1 1962.1 0 0 1 312.53 0A262.4 262.4 0 0 1 911.3 356.9a1962.1 1962.1 0 0 1 0 312.53 262.4 262.4 0 0 1-240.66 240.66z" fill="#F1DFFF" /><path d="M619.07 785.87q-52.91 4.23-106 4.24-53.34 0-106.6-4.24A178.48 178.48 0 0 1 242.8 622.18q-4.23-53.05-4.23-106.29t4.23-106.28a178.49 178.49 0 0 1 163.7-163.7q53.06-4.23 106.28-4.23t106.29 4.23a178.48 178.48 0 0 1 163.69 163.7Q787 462.67 787 515.89t-4.24 106.29a178.47 178.47 0 0 1-163.69 163.69z" fill="#BE85FF" /><path d="M644.62 653.69a26.79 26.79 0 0 1-26.8-26.79 213.46 213.46 0 0 0-213.46-213.46 26.8 26.8 0 0 1 0-53.59 266.87 266.87 0 0 1 267 267 26.79 26.79 0 0 1-26.74 26.84z" fill="#F1DFFF" /><path d="M553.17 656.12a26.79 26.79 0 0 1-26.79-26.8 124.58 124.58 0 0 0-124.44-124.43 26.8 26.8 0 0 1 0-53.59 178 178 0 0 1 178 178 26.79 26.79 0 0 1-26.77 26.82z" fill="#F1DFFF" /><path d="M429.82 601.45m-47.92 0a47.92 47.92 0 1 0 95.84 0 47.92 47.92 0 1 0-95.84 0Z" fill="#F1DFFF" /></svg>