<?xml version="1.0" standalone="no"?><!DOCTYPE svg PUBLIC "-//W3C//DTD SVG 1.1//EN" "http://www.w3.org/Graphics/SVG/1.1/DTD/svg11.dtd"><svg class="icon" width="200px" height="200.00px" viewBox="0 0 1024 1024" version="1.1" xmlns="http://www.w3.org/2000/svg"><path d="M512 512m-448 0a448 448 0 1 0 896 0 448 448 0 1 0-896 0Z" fill="#F8C348" /><path d="M256 256m64 0l384 0q64 0 64 64l0 384q0 64-64 64l-384 0q-64 0-64-64l0-384q0-64 64-64Z" fill="#FFDF79" /><path d="M320 256h80v512h-80c-35.346 0-64-28.654-64-64V320c0-35.346 28.654-64 64-64z" fill="#FFF1BE" /><path d="M446 698c-15.464 0-28-12.536-28-28s12.536-28 28-28 28 12.536 28 28-12.536 28-28 28z m-92 0c-15.464 0-28-12.536-28-28s12.536-28 28-28 28 12.536 28 28-12.536 28-28 28z m92-158c-15.464 0-28-12.536-28-28s12.536-28 28-28 28 12.536 28 28-12.536 28-28 28z m-92 0c-15.464 0-28-12.536-28-28s12.536-28 28-28 28 12.536 28 28-12.536 28-28 28z m92-158c-15.464 0-28-12.536-28-28s12.536-28 28-28 28 12.536 28 28-12.536 28-28 28z m-92 0c-15.464 0-28-12.536-28-28s12.536-28 28-28 28 12.536 28 28-12.536 28-28 28z" fill="#ECC77C" /><path d="M354 652h92c9.941 0 18 8.059 18 18s-8.059 18-18 18h-92c-9.941 0-18-8.059-18-18s8.059-18 18-18z m0-158h92c9.941 0 18 8.059 18 18s-8.059 18-18 18h-92c-9.941 0-18-8.059-18-18s8.059-18 18-18z m0-158h92c9.941 0 18 8.059 18 18s-8.059 18-18 18h-92c-9.941 0-18-8.059-18-18s8.059-18 18-18z" fill="#FFFFFF" /></svg>