<?xml version="1.0" standalone="no"?><!DOCTYPE svg PUBLIC "-//W3C//DTD SVG 1.1//EN" "http://www.w3.org/Graphics/SVG/1.1/DTD/svg11.dtd"><svg class="icon" width="200px" height="200.00px" viewBox="0 0 1024 1024" version="1.1" xmlns="http://www.w3.org/2000/svg"><path d="M671.56 908.6a1962.1 1962.1 0 0 1-312.53 0 262.4 262.4 0 0 1-240.66-240.67 1962.1 1962.1 0 0 1 0-312.53A262.4 262.4 0 0 1 359 114.74a1962.1 1962.1 0 0 1 312.53 0 262.4 262.4 0 0 1 240.7 240.66 1962.1 1962.1 0 0 1 0 312.53A262.4 262.4 0 0 1 671.56 908.6z" fill="#FFE4CF" /><path d="M786.47 511.67c0-149.77-121.41-271.18-271.17-271.18S244.12 361.9 244.12 511.67 365.53 782.84 515.3 782.84s271.17-121.41 271.17-271.17z" fill="#FF6E1F" /><path d="M633 429.47l-43.25 107.7a94.66 94.66 0 0 1-52.59 52.59L429.47 633c-24.17 9.71-48.19-14.31-38.48-38.48l43.25-107.7a94.66 94.66 0 0 1 52.59-52.59L594.53 391c24.17-9.72 48.19 14.3 38.47 38.47z" fill="#FFE4CF" /></svg>